<svg xmlns="http://www.w3.org/2000/svg" viewBox="0 0 512 512">
  <defs>
    <linearGradient id="bg" x1="70" y1="38" x2="450" y2="482" gradientUnits="userSpaceOnUse">
      <stop stop-color="#111d3f" />
      <stop offset="0.48" stop-color="#080c1d" />
      <stop offset="1" stop-color="#17102f" />
    </linearGradient>
    <linearGradient id="ship" x1="154" y1="119" x2="367" y2="393" gradientUnits="userSpaceOnUse">
      <stop stop-color="#e9feff" />
      <stop offset="0.38" stop-color="#5ee8ff" />
      <stop offset="1" stop-color="#8961ff" />
    </linearGradient>
    <linearGradient id="flame" x1="256" y1="340" x2="256" y2="449" gradientUnits="userSpaceOnUse">
      <stop stop-color="#ffffff" />
      <stop offset="0.28" stop-color="#56e9ff" />
      <stop offset="1" stop-color="#7953ff" stop-opacity="0" />
    </linearGradient>
    <filter id="glow" x="-60%" y="-60%" width="220%" height="220%">
      <feGaussianBlur stdDeviation="14" result="blur" />
      <feMerge><feMergeNode in="blur" /><feMergeNode in="SourceGraphic" /></feMerge>
    </filter>
  </defs>
  <rect width="512" height="512" rx="112" fill="url(#bg)" />
  <path d="M67 122h76M369 122h76M67 390h76M369 390h76" stroke="#5deaff" stroke-opacity=".24" stroke-width="5" stroke-linecap="round" />
  <path d="M94 83v38M418 83v38M94 391v38M418 391v38" stroke="#9a72ff" stroke-opacity=".28" stroke-width="5" stroke-linecap="round" />
  <path d="M220 339c19 3 53 3 72 0l-9 72-27 48-27-48-9-72Z" fill="url(#flame)" filter="url(#glow)" />
  <path d="m256 63 42 116 116 77-119 23-39 139-39-139-119-23 116-77 42-116Z" fill="#5deaff" fill-opacity=".16" filter="url(#glow)" />
  <path d="M256 82 290 195l101 74-103 8-32 116-32-116-103-8 101-74 34-113Z" fill="url(#ship)" />
  <path d="m256 82 1 311M126 268l98 9m162-9-98 9" stroke="#e7fdff" stroke-opacity=".72" stroke-width="6" stroke-linecap="round" />
  <path d="m256 150 23 73-23 44-23-44 23-73Z" fill="#0c2448" />
  <path d="m256 162 12 51-12 21-12-21 12-51Z" fill="#8df3ff" fill-opacity=".55" />
  <rect x="8" y="8" width="496" height="496" rx="104" fill="none" stroke="#8eefff" stroke-opacity=".13" stroke-width="4" />
</svg>
